<?xml version="1.0" encoding="utf-8"?>
<!-- Generator: Adobe Illustrator 18.1.1, SVG Export Plug-In . SVG Version: 6.00 Build 0)  -->
<!DOCTYPE svg PUBLIC "-//W3C//DTD SVG 1.1//EN" "http://www.w3.org/Graphics/SVG/1.1/DTD/svg11.dtd">
<svg version="1.1" id="Layer_1" xmlns="http://www.w3.org/2000/svg" xmlns:xlink="http://www.w3.org/1999/xlink" x="0px" y="0px"
	 viewBox="0 0 216 49.7" enable-background="new 0 0 216 49.7" xml:space="preserve">
<g id="Logo">
	<g>
		<path fill="#FFFFFF" d="M103.5,14.3h2.6c1.9,0,2.8-1.3,2.8-2.7c0-1.3-0.9-2.7-2.8-2.7h-8.4v12.1c0,0.6-0.5,1.1-1.1,1.1h-0.1
			c-0.6,0-1.1-0.5-1.1-1.1V7.7c0-0.6,0.5-1.1,1.1-1.1h9.6c3.4,0,5,2.5,5,4.9c0,2.2-1.3,4.3-4,4.7l3.4,4.1c0.6,0.7,0.1,1.7-0.8,1.7
			h-0.1c-0.3,0-0.6-0.1-0.8-0.4l-5.3-6.4V14.3z"/>
		<path fill="#FFFFFF" d="M118.6,8.8c1.4-1.4,3.4-2.3,5.6-2.3c2.2,0,4.1,0.9,5.6,2.3c1.4,1.4,2.3,3.4,2.3,5.6s-0.9,4.1-2.3,5.6
			c-1.4,1.5-3.4,2.3-5.6,2.3c-2.2,0-4.1-0.9-5.6-2.3c-1.4-1.4-2.3-3.4-2.3-5.6S117.2,10.2,118.6,8.8z M128.2,10.4
			c-1-1-2.5-1.7-4-1.7c-1.5,0-2.9,0.6-4,1.7c-1,1-1.7,2.4-1.7,4s0.6,3,1.7,4c1,1,2.4,1.7,4,1.7c1.5,0,3-0.6,4-1.7c1-1,1.6-2.4,1.6-4
			S129.2,11.4,128.2,10.4z"/>
		<path fill="#FFFFFF" d="M138.6,8.9c1.3-1.4,3.2-2.3,5.3-2.3c3,0,5.4,1.6,6.7,4.2c0.3,0.7-0.2,1.5-0.9,1.5h0c-0.4,0-0.8-0.2-1-0.6
			c-0.9-1.9-2.7-2.9-4.7-2.9c-1.5,0-2.8,0.6-3.8,1.7c-1,1-1.6,2.4-1.6,4c0,1.5,0.6,2.9,1.6,3.9c1,1,2.3,1.7,3.8,1.7
			c2.1,0,4-1.1,4.9-3.1c0.2-0.4,0.5-0.6,1-0.6l0,0c0.8,0,1.3,0.8,1,1.5c-1.2,2.7-3.7,4.4-6.8,4.4c-2.1,0-4-0.9-5.3-2.3
			c-1.3-1.4-2.2-3.4-2.2-5.5C136.4,12.2,137.3,10.3,138.6,8.9z"/>
		<path fill="#FFFFFF" d="M159.8,7.7v13.3c0,0.6-0.5,1.1-1.1,1.1h-0.1c-0.6,0-1.1-0.5-1.1-1.1V7.7c0-0.6,0.5-1.1,1.1-1.1h0.1
			C159.3,6.7,159.8,7.2,159.8,7.7z"/>
		<path fill="#FFFFFF" d="M181.3,19.9H193c0.6,0,1.1,0.5,1.1,1.1v0.1c0,0.6-0.5,1.1-1.1,1.1h-12.9c-0.6,0-1.1-0.5-1.1-1.1V7.7
			c0-0.6,0.5-1.1,1.1-1.1h12.8c0.6,0,1.1,0.5,1.1,1.1v0.1c0,0.6-0.5,1.1-1.1,1.1h-11.6v4.3h6.8c0.6,0,1.1,0.5,1.1,1.1v0.1
			c0,0.6-0.5,1.1-1.1,1.1h-6.8V19.9z"/>
		<path fill="#FFFFFF" d="M206.1,21.1V8.9h-5.6c-0.6,0-1.1-0.5-1.1-1.1V7.7c0-0.6,0.5-1.1,1.1-1.1h13.5c0.6,0,1.1,0.5,1.1,1.1v0.1
			c0,0.6-0.5,1.1-1.1,1.1h-5.6v12.2c0,0.6-0.5,1.1-1.1,1.1h-0.1C206.5,22.2,206.1,21.7,206.1,21.1z"/>
		<path fill="#FFFFFF" d="M164.3,15L164.3,15c-0.4-0.4-0.4-1.1,0-1.6l6.3-6.4c0.4-0.4,1.1-0.4,1.6,0v0c0.4,0.4,0.4,1.1,0,1.6
			l-6.3,6.4C165.4,15.4,164.7,15.4,164.3,15z"/>
		<path fill="#FFFFFF" d="M164.2,13.5L164.2,13.5c0.4-0.4,1.1-0.4,1.6,0l6.8,6.7c0.4,0.4,0.4,1.1,0,1.6v0c-0.4,0.4-1.1,0.4-1.6,0
			l-6.8-6.7C163.8,14.6,163.8,13.9,164.2,13.5z"/>
	</g>
	<g>
		<path fill="#FFFFFF" d="M97.7,41.1h12.2c0.6,0,1.1,0.5,1.1,1.1v0.1c0,0.6-0.5,1.1-1.1,1.1H96.5c-0.6,0-1.1-0.5-1.1-1.1V29
			c0-0.6,0.5-1.1,1.1-1.1h0.1c0.6,0,1.1,0.5,1.1,1.1V41.1z"/>
		<path fill="#FFFFFF" d="M171.8,27.9c-0.6,0-1.1,0.5-1.1,1.1v10.5l-11.1-11.3c-0.4-0.4-1.1-0.4-1.6,0c-0.2,0.2-0.3,0.5-0.3,0.8
			c0,0,0,0,0,0v13.2c0,0.6,0.5,1.1,1.1,1.1c0.6,0,1.1-0.5,1.1-1.1V31.8L170.9,43c0.3,0.3,0.8,0.4,1.2,0.2c0.4-0.2,0.7-0.6,0.7-1V29
			C172.9,28.4,172.4,27.9,171.8,27.9z"/>
		<path fill="#FFFFFF" d="M181.5,30.1c1.3-1.4,3.2-2.3,5.3-2.3c3,0,5.4,1.6,6.7,4.2c0.3,0.7-0.2,1.5-0.9,1.5h0c-0.4,0-0.8-0.2-1-0.6
			c-0.9-1.9-2.7-2.9-4.7-2.9c-1.5,0-2.8,0.6-3.8,1.7c-1,1-1.6,2.4-1.6,4c0,1.5,0.6,2.9,1.6,3.9c1,1,2.3,1.7,3.8,1.7
			c2.1,0,4-1.1,4.9-3.1c0.2-0.4,0.5-0.6,1-0.6l0,0c0.8,0,1.3,0.8,1,1.5c-1.2,2.7-3.7,4.4-6.8,4.4c-2.1,0-4-0.9-5.3-2.3
			c-1.3-1.4-2.2-3.4-2.2-5.5C179.3,33.5,180.2,31.6,181.5,30.1z"/>
		<path fill="#FFFFFF" d="M201.7,34.4h10.8V29c0-0.6,0.5-1.1,1.1-1.1h0.1c0.6,0,1.1,0.5,1.1,1.1v13.3c0,0.6-0.5,1.1-1.1,1.1h-0.1
			c-0.6,0-1.1-0.5-1.1-1.1v-5.7h-10.8v5.7c0,0.6-0.5,1.1-1.1,1.1h-0.1c-0.6,0-1.1-0.5-1.1-1.1V29c0-0.6,0.5-1.1,1.1-1.1h0.1
			c0.6,0,1.1,0.5,1.1,1.1V34.4z"/>
		<path fill="#FFFFFF" d="M150.7,29.1c0-0.6-0.5-1.2-1.2-1.2c-0.6,0-1.2,0.5-1.2,1.2v6.6h0c0,0.1,0,0.1,0,0.2c0,3-1.6,5.4-4.5,5.4
			c-3,0-4.5-2.4-4.5-5.4c0-0.1,0-0.1,0-0.2h0v-6.6c0-0.6-0.5-1.2-1.2-1.2c-0.6,0-1.2,0.5-1.2,1.2v6.6h0c0,0.1,0,0.1,0,0.2
			c0,4.2,2.6,7.7,6.8,7.7c4.2,0,6.8-3.4,6.8-7.7c0-0.1,0-0.1,0-0.2h0V29.1z"/>
		<path fill="#FFFFFF" d="M133.4,43.1L133.4,43.1c-0.5,0.3-1.2,0.2-1.6-0.3l-8.3-13.2c-0.3-0.5-0.2-1.2,0.3-1.6l0,0
			c0.5-0.3,1.2-0.2,1.6,0.3l8.3,13.2C134.1,42.1,133.9,42.8,133.4,43.1z"/>
		<path fill="#FFFFFF" d="M115.5,43.1L115.5,43.1c0.5,0.3,1.2,0.2,1.6-0.3l8.3-13.2c0.3-0.5,0.2-1.2-0.3-1.6l0,0
			c-0.5-0.3-1.2-0.2-1.6,0.3l-8.3,13.2C114.8,42.1,115,42.8,115.5,43.1z"/>
		<rect x="118.8" y="37.5" fill="#FFFFFF" width="11.4" height="2.1"/>
	</g>
	<circle fill="#FFFFFF" cx="5.4" cy="25.2" r="4"/>
	<path fill="#FFFFFF" d="M77.8,30.5c-0.7,0-1.3-0.1-1.9-0.4c-2.7-1.1-4.1-4.2-3-6.9c0.8-2,2.7-3.4,4.9-3.4c0.7,0,1.3,0.1,1.9,0.4
		c2.7,1.1,4.1,4.2,3,6.9C82,29.1,80,30.5,77.8,30.5z M77.8,22.4c-1.1,0-2.2,0.7-2.6,1.8c-0.6,1.4,0.1,3,1.6,3.6
		c1.4,0.6,3-0.2,3.6-1.6c0.6-1.4-0.1-3-1.6-3.6C78.5,22.5,78.2,22.4,77.8,22.4z"/>
	<path fill="#FFFFFF" d="M41.7,48.8l-0.5,0c-13-0.3-23.5-11.1-23.2-24.1C18.2,11.9,28.8,1.5,41.6,1.5l0.5,0
		c6.3,0.1,12.2,2.7,16.6,7.3s6.7,10.6,6.6,16.9C65,38.4,54.4,48.8,41.7,48.8z M41.6,4c-11.4,0-20.9,9.3-21.1,20.7
		C20.3,36.4,29.6,46,41.2,46.3l0.4,0c11.4,0,20.9-9.3,21.1-20.7c0.1-5.6-2-11-5.9-15.1C53,6.5,47.7,4.1,42.1,4L41.6,4z"/>
	<path fill="#FFFFFF" d="M46.6,38.4L46.6,38.4l-9.9,0c-0.3,0-0.7-0.1-0.9-0.4l-7-7c-0.2-0.2-0.4-0.6-0.4-0.9l0-9.9
		c0-0.3,0.1-0.7,0.4-0.9l7-7c0.2-0.2,0.6-0.4,0.9-0.4h0l9.9,0c0.3,0,0.7,0.1,0.9,0.4l7,7c0.2,0.2,0.4,0.6,0.4,0.9l0,9.9
		c0,0.3-0.1,0.7-0.4,0.9l-7,7C47.2,38.2,46.9,38.4,46.6,38.4z M37.2,35.8l8.8,0l6.2-6.2l0-8.8l-6.2-6.2l-8.8,0L31,20.7l0,8.8
		L37.2,35.8z"/>
	<path fill="#FFFFFF" d="M66.6,26.5L66.6,26.5l-7.5-0.1c-0.7,0-1.3-0.6-1.3-1.3c0-0.7,0.6-1.3,1.3-1.3h0l7.4,0.1
		c0.7,0,1.3,0.6,1.3,1.3C67.8,25.9,67.3,26.5,66.6,26.5z"/>
</g>
</svg>
