<?xml version="1.0" encoding="utf-8"?>
<!-- Generator: Adobe Illustrator 18.1.1, SVG Export Plug-In . SVG Version: 6.00 Build 0)  -->
<!DOCTYPE svg PUBLIC "-//W3C//DTD SVG 1.1//EN" "http://www.w3.org/Graphics/SVG/1.1/DTD/svg11.dtd">
<svg version="1.1" id="Layer_1" xmlns="http://www.w3.org/2000/svg" xmlns:xlink="http://www.w3.org/1999/xlink" x="0px" y="0px"
	 viewBox="0 0 70 35" enable-background="new 0 0 70 35" xml:space="preserve">
<g>
	<path fill="none" stroke="#EBE60E" stroke-miterlimit="10" d="M30.8,33.8H4.2c-1.7,0-3.1-1.4-3.1-3.1V4.2c0-1.7,1.4-3.1,3.1-3.1
		h26.5c1.7,0,3.1,1.4,3.1,3.1v26.5C33.8,32.5,32.5,33.8,30.8,33.8z"/>
	<path fill="#EBE60E" d="M25.2,13.4c-0.5,0.2-1.1,0.4-1.7,0.5c0.6-0.4,1.1-0.9,1.3-1.6c-0.6,0.3-1.2,0.6-1.9,0.7
		c-0.5-0.6-1.3-0.9-2.1-0.9c-1.6,0-2.9,1.3-2.9,2.9c0,0.2,0,0.5,0.1,0.7c-2.4-0.1-4.6-1.3-6.1-3.1c-0.3,0.4-0.4,0.9-0.4,1.5
		c0,1,0.5,1.9,1.3,2.4c-0.5,0-0.9-0.1-1.3-0.4c0,0,0,0,0,0c0,1.4,1,2.6,2.4,2.9c-0.2,0.1-0.5,0.1-0.8,0.1c-0.2,0-0.4,0-0.6-0.1
		c0.4,1.2,1.5,2,2.7,2c-1,0.8-2.3,1.3-3.6,1.3c-0.2,0-0.5,0-0.7,0c1.3,0.8,2.8,1.3,4.5,1.3c5.4,0,8.4-4.5,8.4-8.4c0-0.1,0-0.3,0-0.4
		C24.3,14.5,24.8,14,25.2,13.4z"/>
</g>
<path fill="#EBE60E" d="M65.5,0.7H38.9c-2,0-3.6,1.6-3.6,3.6v26.5c0,2,1.6,3.6,3.6,3.6h26.5c2,0,3.6-1.6,3.6-3.6V4.2
	C69,2.3,67.4,0.7,65.5,0.7z M58.4,14.9c0,0.1,0,0.3,0,0.4c0,3.9-3,8.4-8.4,8.4c-1.7,0-3.2-0.5-4.5-1.3c0.2,0,0.5,0,0.7,0
	c1.4,0,2.6-0.5,3.6-1.3c-1.3,0-2.4-0.9-2.7-2c0.2,0,0.4,0.1,0.6,0.1c0.3,0,0.5,0,0.8-0.1c-1.3-0.3-2.4-1.5-2.4-2.9c0,0,0,0,0,0
	c0.4,0.2,0.8,0.4,1.3,0.4c-0.8-0.5-1.3-1.4-1.3-2.4c0-0.5,0.1-1,0.4-1.5c1.4,1.8,3.6,2.9,6.1,3.1c-0.1-0.2-0.1-0.4-0.1-0.7
	c0-1.6,1.3-2.9,2.9-2.9c0.8,0,1.6,0.4,2.1,0.9c0.7-0.1,1.3-0.4,1.9-0.7c-0.2,0.7-0.7,1.3-1.3,1.6c0.6-0.1,1.2-0.2,1.7-0.5
	C59.4,14,58.9,14.5,58.4,14.9z"/>
</svg>
