<?xml version="1.0" encoding="utf-8"?>
<!-- Generator: Adobe Illustrator 18.1.1, SVG Export Plug-In . SVG Version: 6.00 Build 0)  -->
<!DOCTYPE svg PUBLIC "-//W3C//DTD SVG 1.1//EN" "http://www.w3.org/Graphics/SVG/1.1/DTD/svg11.dtd">
<svg version="1.1" id="Layer_1" xmlns="http://www.w3.org/2000/svg" xmlns:xlink="http://www.w3.org/1999/xlink" x="0px" y="0px"
	 viewBox="0 0 70 35" enable-background="new 0 0 70 35" xml:space="preserve">
<g>
	<path fill="none" stroke="#EBE60E" stroke-miterlimit="10" d="M30.8,33.8H4.2c-1.7,0-3.1-1.4-3.1-3.1V4.2c0-1.7,1.4-3.1,3.1-3.1
		h26.5c1.7,0,3.1,1.4,3.1,3.1v26.5C33.8,32.5,32.5,33.8,30.8,33.8z"/>
	<g>
		<path fill-rule="evenodd" clip-rule="evenodd" fill="#EBE60E" d="M14.1,23.8v-8.1h-2.7v8.1H14.1L14.1,23.8z M12.7,14.5
			c0.9,0,1.5-0.6,1.5-1.4c0-0.8-0.6-1.4-1.5-1.4c-0.9,0-1.5,0.6-1.5,1.4C11.2,13.9,11.8,14.5,12.7,14.5L12.7,14.5L12.7,14.5z"/>
		<path fill-rule="evenodd" clip-rule="evenodd" fill="#EBE60E" d="M15.6,23.8h2.7v-4.5c0-0.2,0-0.5,0.1-0.7c0.2-0.5,0.6-1,1.4-1
			c1,0,1.4,0.7,1.4,1.8v4.4h2.7v-4.7c0-2.5-1.3-3.7-3.1-3.7c-1.5,0-2.1,0.8-2.5,1.4h0v-1.2h-2.7C15.6,16.4,15.6,23.8,15.6,23.8
			L15.6,23.8z"/>
	</g>
</g>
<g>
	<path fill-rule="evenodd" clip-rule="evenodd" fill="#EBE60E" d="M52.9,16.8L52.9,16.8C52.9,16.8,52.9,16.8,52.9,16.8L52.9,16.8z"
		/>
	<path fill-rule="evenodd" clip-rule="evenodd" fill="#EBE60E" d="M65.5,0.7H38.9c-2,0-3.6,1.6-3.6,3.6v26.5c0,2,1.6,3.6,3.6,3.6
		h26.5c2,0,3.6-1.6,3.6-3.6V4.2C69,2.3,67.4,0.7,65.5,0.7z M48.7,23.8H46v-8.1h2.7V23.8z M47.4,14.5L47.4,14.5
		c-0.9,0-1.5-0.6-1.5-1.4c0-0.8,0.6-1.4,1.5-1.4c0.9,0,1.5,0.6,1.5,1.4C48.9,13.9,48.3,14.5,47.4,14.5z M58.5,23.8h-2.7v-4.4
		c0-1.1-0.4-1.8-1.4-1.8c-0.7,0-1.2,0.5-1.4,1c-0.1,0.2-0.1,0.4-0.1,0.7v4.5h-2.7c0,0,0-7.4,0-8.1h2.7v1.2c0.4-0.6,1-1.3,2.4-1.3
		c1.8,0,3.1,1.2,3.1,3.7V23.8z"/>
</g>
</svg>
