<?xml version="1.0" encoding="utf-8"?>
<!-- Generator: Adobe Illustrator 18.1.1, SVG Export Plug-In . SVG Version: 6.00 Build 0)  -->
<!DOCTYPE svg PUBLIC "-//W3C//DTD SVG 1.1//EN" "http://www.w3.org/Graphics/SVG/1.1/DTD/svg11.dtd">
<svg version="1.1" id="Layer_1" xmlns="http://www.w3.org/2000/svg" xmlns:xlink="http://www.w3.org/1999/xlink" x="0px" y="0px"
	 viewBox="0 0 70 35" enable-background="new 0 0 70 35" xml:space="preserve">
<g>
	<path fill="none" stroke="#EBE60E" stroke-miterlimit="10" d="M30.8,33.8H4.2c-1.7,0-3.1-1.4-3.1-3.1V4.2c0-1.7,1.4-3.1,3.1-3.1
		h26.5c1.7,0,3.1,1.4,3.1,3.1v26.5C33.8,32.5,32.5,33.8,30.8,33.8z"/>
	<g>
		<path fill="#EBE60E" d="M19.7,13.8c-1,0-1.1,0.6-1.1,1.3v1h2.5l-0.2,3h-2.2v6.6h-3V19h-1.7v-3h1.7v-2.2c0-1.8,1-2.8,3-2.8h2.5v2.8
			H19.7z"/>
	</g>
</g>
<path fill="#EBE60E" d="M65.5,0.7H38.9c-2,0-3.6,1.6-3.6,3.6v26.5c0,2,1.6,3.6,3.6,3.6h26.5c2,0,3.6-1.6,3.6-3.6V4.2
	C69,2.3,67.4,0.7,65.5,0.7z M55.8,13.8h-1.3c-1,0-1.1,0.6-1.1,1.3v1h2.5l-0.2,3h-2.2v6.6h-3V19h-1.7v-3h1.7v-2.2c0-1.8,1-2.8,3-2.8
	h2.5V13.8z"/>
</svg>
